<?xml version="1.0" encoding="UTF-8"?>
<svg id="Layer_2" data-name="Layer 2" xmlns="http://www.w3.org/2000/svg" viewBox="0 0 660.59 660.59">
  <defs>
    <style>
      .cls-1 {
        fill: #4a3578;
      }

      .cls-1, .cls-2, .cls-3, .cls-4, .cls-5, .cls-6, .cls-7, .cls-8, .cls-9, .cls-10, .cls-11, .cls-12, .cls-13, .cls-14, .cls-15, .cls-16, .cls-17 {
        stroke-width: 0px;
      }

      .cls-2 {
        fill: #7759a5;
      }

      .cls-3 {
        fill: #4e3a7c;
      }

      .cls-4 {
        fill: #493678;
      }

      .cls-5 {
        fill: #5a408e;
      }

      .cls-6 {
        fill: #8a66ac;
      }

      .cls-7 {
        fill: #dcebed;
      }

      .cls-8 {
        fill: #ddeaef;
      }

      .cls-9 {
        fill: #ddeaed;
      }

      .cls-10 {
        fill: #a47ab6;
      }

      .cls-11 {
        fill: #ac7db7;
      }

      .cls-12 {
        fill: #a178b5;
      }

      .cls-13 {
        fill: #825fa8;
      }

      .cls-14 {
        fill: #7f5da7;
      }

      .cls-15 {
        fill: #9970b1;
      }

      .cls-16 {
        fill: #fbfbfd;
      }

      .cls-17 {
        fill: #fbfbfc;
      }
    </style>
  </defs>
  <g id="Layer_4" data-name="Layer 4">
    <g>
      <circle class="cls-1" cx="330.29" cy="330.29" r="330.29"/>
      <g>
        <path class="cls-16" d="m598.64,193.82c26.44,50.2,38.02,103.51,32.94,160.15-2.27,25.32-8.11,49.88-16.81,73.83-17.87,49.2-47.38,90.4-85.5,125.73-13.08,12.13-27.57,22.44-42.76,31.8-48.51,29.87-101.51,43.95-158.16,44.06-57.27.12-110.73-14.45-159.58-44.74-29.07-18.02-53.85-40.82-74.73-67.94-12.06-15.66-22.76-32.2-31.32-49.97-13.83-28.71-22.83-58.98-27.66-90.49-7.96-51.98-1.29-102.19,17.78-151,15.36-39.32,38.21-73.7,67.51-103.95,14.36-14.83,30.48-27.43,47.67-38.79,48.52-32.07,101.91-48.34,159.97-49.23,46.24-.7,90.34,8.71,132.43,28.09,42.92,19.76,77.98,49.27,107.78,85.41,11.93,14.46,21.9,30.29,30.46,47.01Z"/>
        <path class="cls-1" d="m454.13,435.56c-32.55,14.33-64.38,13.08-94.77-5.63-15.72-9.68-27.07-23.41-31.71-41.85-1.01-4.02-1.28-8.11-.84-12.23.46-4.3,1.21-4.71,5.52-3.98,23.05,3.94,46.12,4.35,69.14-.05,7.83-1.49,14.97-4.67,20.78-10.37,9.78-9.6,9.19-22.93-1.42-31.6-7.1-5.8-7.02-7.51.57-12.49.83-.55,1.7-1.05,2.5-1.64,4.38-3.21,4.47-6.55-.22-9.33-5.18-3.07-4.87-4.71-.83-8.69,1.15-1.13,2.38-2.23,3.29-3.54,2.62-3.75,1.49-7.23-2.74-8.82-.35-.13-.71-.25-1.06-.36-2.81-.89-5.19-2.42-5.05-5.66.13-3.08,2.45-4.8,5.15-5.79,4.21-1.54,8.44-3.02,12.72-4.32,2.1-.64,3.84-1.69,5.49-3.07,4-3.36,4.44-6.49,1.21-10.64-3.83-4.93-8.4-9.19-12.64-13.75-7.98-8.56-16.05-17.03-23-26.51-7.63-10.41-11.03-22.2-12.36-34.77-1.39-13.07-3.88-25.88-9.56-37.83-10.67-22.46-26.78-39.71-49.34-50.64-.66-.32-1.31-.78-2.29-.42,3.69,24.75,1.74,49.28-4.24,73.47-8.03,32.52-22.76,61.85-43.11,88.41-12.05,15.72-25.52,30.29-37.34,46.2-15.85,21.32-28.36,44.46-38.82,68.85-12.68,29.58-22.7,60.17-35.09,89.86-9.53,22.82-20.8,44.72-33.25,66.06-1.44,2.47-2.42,3.3-4.89.75-10.44-10.76-19.92-22.29-28.56-34.53-.71-1-1.14-2.2-1.71-3.31-.85-4.62.68-8.96,2.1-13.13,6.3-18.48,14.47-36.1,25-52.57,9.69-15.15,20.68-29.35,32.18-43.16,14.36-17.25,29.26-34.05,42.96-51.84,10.97-14.25,21.08-29.06,29.65-44.9,14.61-27.01,27.4-54.87,38.68-83.42,11.98-30.31,19.8-61.7,23.66-94.05,1.51-12.64,1.68-25.37,1.41-38.1-.04-1.81.08-3.47,1.19-4.95,6.26-.88,12.55-1.4,18.87-1.47,2.09.93,3.61,2.36,4.94,4.32,4.12,6.04,10.22,9.73,16.44,13.25,2.69,1.52,5.75,2.5,7.75,5.09,2.04,3.58,5.46,5.73,8.64,8.01,9.21,6.61,18.07,13.64,26.46,21.25,13.86,12.57,26.25,26.48,37.76,41.22,6.88,8.81,13.43,17.9,21.23,25.99,8.74,9.06,18.05,17.48,27.91,25.28,7.53,5.96,14.73,12.26,20.87,19.69,1.13,1.37,2.22,2.71,2.14,4.61-.91,2.35-3.43,4.31-1.1,7.35,1.63,2.13,2.4,4.76,5.21,6.08,3.48,1.63,4.25,4.44,1.84,7.32-2.56,3.07-1.65,5.39.45,7.9.32.38.71.71,1,1.11,1.18,1.6,2.09,3.4.47,5.06-1.54,1.58-2.54-.67-4.09-1.07-.35,1.92.37,3.69.64,5.45.47,3.01.14,5.76-1.85,8.11-1.75,2.08-1.19,3.59.92,4.87,1.53.93,3.2,1.9,2.44,4.06-.71,2-2.63,2.04-4.4,2.13-1.38.06-2.74-.34-4.09-.31-1.53.04-3.14.54-3.5,2.24-.32,1.5.67,2.61,2.05,3.2,1.84.79,3.29,2.26,5.23,2.88,2,.65,3.26,1.92,2.82,4.18-.43,2.18-1.78,3.52-4,3.9-1.24.21-2.5.14-3.73.09-2.22-.09-2.5,1.35-3.1,2.96-.74,1.97.73,1.9,1.71,2.5,2.65,1.62,3.9,5.38,2.82,8.21-1.07,2.81-3.39,3.88-7.08,3.24-.74-.13-1.45-.42-2.2-.44-1.76-.05-2.7,1.19-3.41,2.51-.78,1.46.26,2.27,1.37,3.01,2.2,1.47,3.56,3.48,3.75,6.17.27,3.97-2.33,6.09-6.13,5.04-.6-.17-1.16-.47-1.76-.63-.93-.26-1.78-.04-2.32.76-.52.77-.03,1.62.5,1.99,4.71,3.31,5.26,7.47,3.08,12.55-.54,1.26-.27,3.44,2.25,1.59,2.22-1.63,3.87-.66,4.66,1.6.74,2.1,1.86,2.53,3.97,2.13,3.51-.67,5.14.43,7.01,4.09,1.76,3.44,1.47,5.58-.96,8.15-.87.92-1.95,1.55-2.89,2.37-1.14,1.01-1.23,1.24-1.32,3.48,2-3.03,4.43-5.69,6.25-8.93,2.24-3.97,5.08-7.64,8.54-10.7,1.04-.92,2.37-1.49,3.69-.24.75,2.9-1.38,4.59-2.84,6.5-4.21,5.52-8.38,11.02-10.56,17.79-1.37,4.27-1.45,8.55-.81,12.85.36,2.44.67,4.89.97,7.34-.26,1.86-1.64,2.99-2.79,4.26-4.23,4.66-8.78,9-13,13.67-3.66,3.74-7.54,7.26-11.08,11.13-.51.56-1.08,1.22-1.78,1.31-5.36.74-9.33,4.59-14.25,6.28Z"/>
        <path class="cls-11" d="m349.57,82.76c-11.21-5.45-21.89-11.55-28.2-23.01,9.44-1.04,18.89-.43,28.3.21,24.97,1.69,49.43,6.15,73.18,14.28,18.1,6.19,35.34,14.15,51.78,23.93,18.61,11.07,35.44,24.44,50.79,39.63,12.12,12,23.17,24.95,32.81,39.09,9.02,13.23,17.16,26.91,23.73,41.52,13.27,29.51,21.9,60.25,24.33,92.61,2.88,38.32-3.6,75.2-17.2,110.97-15.51,40.8-39.81,75.68-71.03,105.95-7.25,7.03-14.85,13.65-22.65,20.05-1.04.85-2.27,2.21-3.51,1.55-.74-.39-.9-2.19-1.04-3.39-1.81-15.63,2.03-30.19,8.58-44.18,7.62-16.26,19.31-29.5,31.69-42.21,13.47-13.82,27.42-27.24,37.62-43.84,10.66-17.33,16.42-36.23,17.48-56.55.05-.87.03-1.75-.1-2.61-.37-2.37-1.23-4.44-4.04-4.58-2.77-.14-3.54,1.92-3.94,4.12-1.26,6.99-1.88,14.09-4.15,20.88-4.36,13.02-10.58,24.98-19.67,35.35-2.58-1.33-1.64-3.3-.74-5.05.96-1.89,2.07-3.61,1.66-5.91-.2-1.12.42-2.21,1.2-3.04,4.04-4.25,5.43-9.96,8.16-14.93,1.19-2.16-.08-4.84-.13-7.29-.04-1.88-.22-3.7.88-5.7-2.35,1.57-3.49,5.48-7.04,2.63-.75-1.88.22-3.41,1.06-4.93,10.29-18.51,17.02-38.23,19.93-59.22,1.43-10.28,1.71-20.64,1.13-31-.11-1.91.38-5.15-2.43-5.07-2.92.08-2.5,3.26-2.51,5.39-.19,32.85-11.28,62.03-29.62,88.82-6.79,9.92-14.62,18.97-22.95,27.6-1.45,1.5-2.81,3.29-5.32,2.95-2.46-2.47-2.6-4.9-.43-7.39,1.14-1.31,3.11-1.85,2.87-4.37-.25-2.64-1.32-4.72-2.81-6.72-.44-.59-1.12-.98-1.41-1.71-.44-2.41,1.14-3.98,2.42-5.63,12.94-16.63,23.53-34.53,30.77-54.43,7.08-19.45,10.53-39.52,10.5-60.08-.02-17.69-3.23-34.97-9.76-51.52-8.46-21.42-21.57-39.45-39.31-54.17-11.8-9.79-24.81-17.54-38.73-23.85-.91-.41-1.87-.71-2.83-.98-4.11-1.15-4.75-.85-6.53,3.14-1.59,1.24-2.93.34-4.28-.51-18.43-9.99-37.48-18.6-56.97-26.32-14.6-5.78-29.22-11.47-44.13-16.39-2.69-.89-5.41-1.92-7.44-4.1Z"/>
        <path class="cls-4" d="m91.25,463.46c-11.31-20.52-19.53-42.23-25.2-64.94-.93-3.73-1.7-7.51-2.59-11.25-.44-1.87-.14-3.03,1.77-4.19,36.42-22.24,70.28-47.75,100.07-78.47,30.57-31.52,56.93-66.19,78.16-104.64,18.37-33.25,32.29-68.24,39.25-105.75,1.52-8.2,2.54-16.5,3.45-24.79.7-6.39.46-6.42,7.05-6.69,2.25,1.35,1.94,3.63,1.96,5.69.11,12.12-1,24.16-2.59,36.16-2.15,16.21-5.63,32.12-9.91,47.92-10.9,40.3-28.63,77.55-49.89,113.24-21.37,35.88-46.41,69.09-73.25,101.03-18.06,21.48-35.64,43.35-50.1,67.52-4.99,8.35-9.61,16.91-14.04,25.57-.86,1.68-1.5,3.87-4.15,3.59Z"/>
        <path class="cls-2" d="m349.82,594.23q.01,8.64-8.6,8.97c-11.96.43-23.9.23-35.82-1.17-1.98-.23-3.54-.88-5.05-2.06-23.64-18.53-41.32-41.75-53.62-69.02-7.75-17.19-12.83-35.27-16.29-53.81-4.93-26.36-6.68-52.88-3.71-79.58,2.99-26.96,9.58-52.97,22.13-77.17,4.86-9.37,10.4-18.38,17.36-26.58-6.84,18.56-10.19,37.68-9.99,57.41-.44.79-.6,1.66-.59,2.53.16,12.96-.13,25.96,1.57,38.82,1.87,14.22,5.39,28.11,9.34,41.92,3.88,13.56,8.82,26.71,14.03,39.77,2.9,7.27,6.13,14.45,9.23,21.64,6.42,14.92,14.06,29.2,21.67,43.51,9.53,17.92,21.21,34.31,35.22,49,1.64,1.72,2.53,3.65,3.12,5.83Z"/>
        <path class="cls-1" d="m65.54,326.08c-2.36,1.54-4.73,3.08-7.44,4.84-.02-9.25.65-18.03,1.67-26.8,5.92-50.63,24.61-96.12,55.56-136.47,17.8-23.2,38.31-43.74,62.74-60.15,6.94-4.66,14.22-8.74,21.15-13.39,3.41.03,2.24,2.51,1.81,3.98-1.37,4.67-3.35,9.12-5.6,13.44-8.16,15.6-17.92,30.25-27.12,45.22-11.98,19.49-22.22,39.8-31.43,60.7-8.24,18.7-15.75,37.75-25.9,55.56-10.12,17.75-22.08,34.08-37.41,47.78-2.44,2.18-5.39,3.46-8.02,5.29Z"/>
        <path class="cls-7" d="m91.25,463.46c3.68-4.43,5.6-9.87,8.26-14.86,13.53-25.41,30.37-48.54,48.78-70.52,27.6-32.96,54.36-66.53,77.11-103.09,17.93-28.81,33.48-58.82,45.38-90.71,10.29-27.58,17.5-55.86,20.91-85.07,1.41-12.08,2.79-24.24,1.52-36.47,3.03-.94,6.4.25,9.3-1.5,2.15,35.51-3.6,70.02-13.49,103.95-10.05,34.48-24.92,67-40.53,99.24-17.04,35.18-40.27,65.97-65.67,95.35-17.6,20.35-35.08,40.82-49.33,63.75-11.84,19.04-21.51,39.1-26.79,61.05-.23.95-.68,1.86-1.02,2.78-1.29-.71-1.77-2.09-2.45-3.24-4.04-6.85-7.99-13.76-11.97-20.66Z"/>
        <path class="cls-1" d="m220.23,84.64c2.81-3.57,7.26-4.14,11.05-5.73,9.97-4.19,20.12-7.94,30.64-10.59,1.09-.28,2.4-.93,3.2-.33,1.07.79.03,2.09-.24,3.1-5.83,21.92-15.24,42.4-25.45,62.52-15.76,31.04-34.4,60.29-55.09,88.25-7.77,10.5-15.96,20.67-24.53,30.54-2.03.82-2.26-.9-2.61-2.04-.79-2.52-.91-5.16-.8-7.79.52-12.26,2.54-24.27,5.53-36.19,7.18-28.68,21.03-54.32,35.63-79.65,7.23-12.53,15.09-24.73,20.3-38.33.55-1.43,1.39-2.63,2.38-3.76Z"/>
        <path class="cls-9" d="m220.23,84.64c-1.41,7.47-4.97,14.07-8.59,20.59-8.7,15.7-17.91,31.13-26.44,46.92-13.63,25.22-23.42,51.79-26.6,80.49-.66,5.92-1.25,11.9-.03,17.85.17.84-.05,1.82,1.23,1.91-11.61,12.47-23.76,24.42-36.88,35.29-11.96,9.91-24.28,19.32-37.65,27.36-4.11,2.47-8.51,4.63-12.22,7.85-2.09,1.82-4.89,2.4-7.52,3.18,8.82-8.21,17.63-16.36,25.21-25.83,12.96-16.18,22.88-34.09,31.31-52.91,11.4-25.44,21.54-51.5,35.63-75.65,9.22-15.82,18.98-31.32,28.53-46.94,5.2-8.52,10.01-17.25,13.32-26.71.41-1.16,2.22-2.84-.32-3.92,5.67-1.69,10.53-5.07,15.77-7.65,1.68-.83,3.28-1.83,5.24-1.81Z"/>
        <path class="cls-12" d="m349.82,594.23c-7.15-7.4-13.84-15.17-20.17-23.31-13.62-17.54-23.41-37.31-33.36-56.94-5.54-10.94-10.44-22.24-14.99-33.68-3.57-9-7.22-17.97-10.59-27.05-3.76-10.14-6.46-20.62-9.3-31.05-5.85-21.56-8.31-43.46-6.79-65.76.12-1.73-.74-4.05,1.6-5.22.9,12.78,2.65,25.43,6.04,37.82,2.92,10.69,6.86,21,11.17,31.21,4.72,11.18,10.45,21.81,17.09,31.92,5.87,8.92,12.06,17.64,18.32,26.3,11.48,15.87,22.63,31.97,29.8,50.32,7.89,20.18,12.28,41.13,11.63,62.94-.03.86.14,1.76-.47,2.51Z"/>
        <path class="cls-6" d="m454.13,435.56c1.63-.89,3.2-1.93,4.91-2.64,8.29-3.48,13.8-10.32,20-16.35.44-.42.97-.75,1.45-1.12,3.37-1.51,6.87-2.72,9.75-5.18,1.27-1.08,2.91-1.95,4.18-.08,1.13,1.66.11,3.03-1.16,4.22-1.26,1.18-3.22,1.38-4.21,2.97,7.18,3.51,14.6,6.63,18.63,14.19,2.27,4.26,1.03,8.93,2.15,13.29,1.26-.32,2.85.02,3.43,2.07.54,1.92-.96,2.56-2.18,3.72-3.81,3.61-8.74,6.23-10.8,11.49-12.09,12.92-22.5,26.93-28.91,43.62-4.82,12.54-7,25.54-6.93,38.94-2.07-.15-2.48-1.79-2.97-3.33-.89-2.78-.94-5.66-.72-8.51.6-7.8,1.56-15.56,3.35-23.19.39-1.67,0-2.98-.61-4.58-1.69-4.48-4.53-8.16-7.02-12.14-4.37-6.97-6.8-14.9-9.36-22.7-.15-.47-.29-1-.19-1.47.56-2.56-.54-4.19-2.82-5.18,4.86-10.16,11.78-18.99,18.2-28.14,1.11-1.59,2.27-3.15,3.93-5.46-4.79,1.7-7.92,4.8-12.08,5.56Z"/>
        <path class="cls-14" d="m444.08,463.6c.37-.03.76,0,1.12-.09q4.41-1.08,3.28,3.17c-.36,1.37-.25,2.69.27,4.02,2.14,5.56,4.17,11.16,6.4,16.68.93,2.29,1.96,4.61,3.72,6.44,2.44,2.56,3.45,5.99,5.23,8.75,2.5,3.87,1.65,6.87.76,10.49-1.47,5.98-1.66,12.15-2.38,18.23-.55,4.6-.54,9.21,1.94,13.41.88,6.64,1.06,13.38,3.08,19.84.42,1.33-.02,2.01-1.21,2.64-8.39,4.42-16.78,8.83-25.1,13.38-2.63,1.44-2.9-.59-3.63-2.06-5.93-11.97-9.12-24.7-10.51-37.94-2.05-19.57.64-38.55,7.34-56.94,2.53-6.95,5.45-13.84,9.68-20.03Z"/>
        <path class="cls-15" d="m500.26,462.15c-.05-2.44.46-4.29,2.72-6.02,1.93-1.47,4.53-2.7,5.32-5.5.31-1.12,1.37-1.33,2.45-1.24.85.07,1.47-.21,1.56-1.16.08-.92-.07-1.78-.95-2.26-.78-.42-1.38-.04-1.98.52-.87.81-1.55,3.01-3.08,1.21-1.33-1.57,0-2.71,1.54-3.39.5-.22.96-.68.68-1.14-2.24-3.74-.38-8.2-2.64-12.2-2.14-3.82-5.87-5.22-8.83-7.54-2.22-1.74-4.79-5.09-8.83-3.39-.75.32-1.51-.69-1.76-1.61-.26-.97.2-1.65.85-2.31,1.46-1.48,3.57-1.74,5.21-2.87.97-.67,2-1.57.98-2.7-1.02-1.13-1.7.17-2.34.85-2.9,3.12-6.58,4.15-10.69,4.06,5.23-5.63,10.45-11.25,15.68-16.88.37-1.31.73-2.62,1.81-3.6,4.04-3.65,7.32-8.07,11.49-11.59,2.72-.88,3.68-3.45,5.23-5.46.5-.33,1.03-.48,1.61-.26,2.55.49,5.95,4.57,5.23,7.06-.63,2.17.3,3.02,2.16,3.87-6.16,1.51-7.44,3.52-6.08,8.91-.04.16-.08.32-.12.48-.72,1.14-2.81,1.26-2.41,3.24-.18.67-.51,1.25-.94,1.78-1.31,1.28-2.39,2.62-1.27,4.57,2.58,4.15,5.15,4.61,9.56,1.49,7.93-5.61,15.12-12.04,21.63-19.28,3.84-4.27,7.08-8.96,10.48-13.54,1.08-1.46,1.96-3.27,4.19-3.34,2.64,1.11,3.51-.93,4.46-2.61.57-1.01,1.01-2.03,2.24-2.3.75-.16,1.53-.11,2.09.47.65.68.36,1.54-.12,2.04-3.21,3.31-.86,7.06-.84,10.59,0,1.08.53,2.16-.21,3.18-2.79,3.86-4.2,8.41-6.32,12.61-.48.95-1.25,1.51-2.06,2.09-.73.52-1.73,1.39-1.41,2.04,1.71,3.44-.82,5.51-2.27,7.96-.68,1.16-.61,2.39.05,3.57-8.81,11.29-19.78,20.31-30.89,29.11-8.11,6.42-15.62,13.48-23.19,20.49Z"/>
        <path class="cls-13" d="m349.57,82.76c9.41,3.22,18.91,6.23,28.22,9.72,17.83,6.67,35.54,13.66,52.84,21.62,8.92,4.1,17.62,8.68,26.39,13.08.62.31,1.06.98,1.58,1.49,1.2,2.75-.61,5.1-1.16,7.57-.66,2.98-.01,5.22,2.52,6.78,9.88,6.09,18.52,13.81,27.56,21.01,7.93,6.87,15.22,14.33,21.18,23.02,5.07,7.39,9.98,14.83,13.02,23.39,3.17,8.93,6.23,17.82,7.37,27.31,1.11,9.21,1.13,18.38.29,27.58-1.26,13.74-4.94,26.89-9.91,39.71-.63,1.64-1.86,2.97-2.3,4.68-.08.39-.23.74-.46,1.06-4.24,8.87-8.77,17.56-14.51,25.58-2.39,3.35-4.89,6.61-7.33,9.92-1.18,1.6-2.59,3.04-4.26,4.17-2.14,1.45-4.41,1.76-6.67.35-2.35-1.46-3.28-3.58-2.83-6.38.56-3.43,2.37-6.27,4.04-9.19,7.56-13.25,14.32-26.86,17.93-41.77,3.55-14.69,4.56-29.39.54-44.34-1.5-5.58-4.56-10.11-6.83-15.15-.77-1.7-1.83-3.27-1.81-5.23-4.71-7.15-10.88-12.95-17.45-18.27-14.3-11.59-28.52-23.29-40.43-37.41-7.84-9.3-14.94-19.21-22.64-28.63-10.55-12.9-22.13-24.81-34.72-35.77-8.64-7.52-18.2-13.82-26.9-21.23-1.45-1.23-3.33-2.32-3.27-4.68Z"/>
        <path class="cls-3" d="m515.97,310c2.02-5.73,4.23-11.41,6.04-17.21,7.89-25.24,9.24-50.59.52-75.94-6.8-19.76-18.55-36.19-34.15-49.97-.74-.65-1.36-1.44-2.03-2.16-1.09-2.59-3.29-4.13-5.37-5.82-1.61-1.3-3.41-2.67-3.11-5.15.22-1.78.85-3.45,2.53-4.34,1.83-.96,2.53,1.04,3.77,1.68.62-.64.27-1.38-.2-1.58-4.12-1.78-6.71-5.46-10.11-8.11-1.54-1.2-3.35-2.4-2.21-4.87,1.57-.76,2.94-.09,4.22.69,17.56,10.79,33.27,23.6,45.56,40.39,13.09,17.88,21.29,37.64,24.23,59.57,2.29,17.12.89,34.05-2.63,50.9-1.87,8.96-5.07,17.46-8.06,26.04-.77,2.22-1.67,4.45-3.53,6.07-2.46,1.04-4.7,3.41-7.36,1.42,2.91.68,2.93,2.8,2.02,5.39-1.5,4.3-3.24,8.3-6.49,11.8-2.04,2.19-2.01,6.27-4.58,8.27-2.25,1.75-3.07,3.74-3.22,6.33-.36.69-.78,1.3-1.7,1.17-2.42-.33-2.93,1.86-4.2,3.11-5.07,5.01-8.22,11.37-12.17,17.17-.66.97-.4,3.32-2.53,2.03-1.62-.99-2.91-2.62-1.6-4.71,1-1.6,2.57-2.65,4.11-3.75,3.89-2.77,3.6-8.16-.42-10.77-1.29-.84-2.33-.23-3.52.17-2.87.98-4.98.57-5.14-3.07-.04-.86,0-1.88-1.13-2.09-1.2-.22-1.38.78-1.61,1.62-.31,1.1-1.02,1.73-2.18,1.64-1.33-.11-2.08-1.12-2.19-2.23-.23-2.39-.96-4.85,1.04-7.03,1.54-1.68,1.59-3.41-.93-4.37-2.4-.92-2.96-3.6-4.88-5.01-.7-.52-.21-1.51.49-1.85,1.69-.82,3.15-2.91,5.35-1.55,1.84,1.14,3.53,2.89,5.3.1,1.25-1.98.17-6.2-2.07-7.29-2.32-1.12-4.63-2.43-3.14-5.13,1.4-2.54,3.34-5.47,7.37-3.35,2.15,1.13,4.42,1.2,5.75-1.44,1.34-2.65.12-4.92-1.48-6.87-1.34-1.64-3.32.11-5.34-.56,2.14-2.26,3.7-4.68,2.1-8.02,2.91.1,5.49.1,8.05.3,2.48.19,2.87-1.71,3.32-3.3.52-1.88-1.17-1.59-2.28-2.06-2.36-1-4.79-2.06-6.8-3.61-1.38-1.06-2.89-3.12-1.83-4.89,1.28-2.13,3.62-3.56,6.34-2.86,1.75.45,3.45.4,5.18.35.79-.02,1.54-.25,1.68-1.15.15-.92-.52-1.39-1.27-1.57-2.15-.49-3.46-1.82-4.27-3.81-.4-.99-.73-1.97.33-2.67,3.54-2.34,3.61-5.64,2.7-9.26-.12-.48-.15-.99-.17-1.48-.08-1.95-2.4-4.32.03-5.74,2.93-1.71,2.51,2.64,4.6,3.25.86-1.59.35-2.8-1.01-3.75-1.62-1.13-2.27-2.93-3.23-4.52-1.16-1.93-.7-3.46.77-5.02,3.56-3.78,3.28-5.01-1.34-6.74-1.77-.66-6.88-8.84-6.65-10.75.26-2.15,2.36-2.34,3.72-3.31,5.44,6.96,8.94,14.82,10.94,23.4,3.83,16.51,1.64,32.6-3.2,48.55-4.3,14.17-11.58,26.94-18.59,39.83-.59,1.08-1.02,2.25-1.45,3.41-.91,2.46-.19,4.39,2,5.79,2.19,1.39,4.08.63,5.73-.97,3.96-3.83,7.02-8.39,10.18-12.86,5.53-7.83,10.37-16.09,14.41-24.79.2-.42.64-.73.97-1.09,2.84,1.08,2.18,3.29,1.55,5.3-.76,2.44-2.3,4.59-3.15,7.82,1.06-2.68,2.58-4.21,3.63-6.03,1.53-2.65.68-5.5-2.03-7.11Z"/>
        <path class="cls-17" d="m510.1,354.58c.31-.42.62-.84.93-1.25.41-2.26,1.74-3.95,3.04-5.79,3.93-5.56,7.68-11.24,10.45-17.54,1.65-3.76,2.6-8.03,6.21-10.7,6.48-13.2,10.26-27.22,12.59-41.67,3.72-23.11,2.21-45.89-6.02-67.84-8.72-23.24-23.38-42.34-42.83-57.78-7.27-5.77-14.87-11.03-23.02-15.49-4.26.13-8.68-2.85-9.57-6.45-.61-4.23,1.64-6.33,5.83-5.28,4.27,1.06,8.12,3.17,12.02,5.12,18,9.02,34.15,20.56,47.41,35.79,21.33,24.49,32.19,53.24,33.63,85.55,1.63,36.31-7.73,69.8-26.57,100.74-4.86,7.98-10.26,15.59-16.09,22.9-.69.86-1.22,1.85-1.82,2.78-.39.31-.79.62-1.19.93-1.43,2-2.58,4.25-4.73,5.65-4.6,4.92-8.94,10.09-14.22,14.33-4-10.85-2.35-20.97,4.12-30.38,3.17-4.61,6.54-9.08,9.83-13.61Z"/>
        <path class="cls-8" d="m513.41,402.26l.8-1.42c.31-1.94,2.31-2.17,3.39-3.34,0,0,.02,0,.02,0,5.83-4.55,10.54-10.23,15.28-15.8,10.27-12.08,18.97-25.21,25.89-39.54,7.17-14.84,11.97-30.32,13.99-46.68.75-6.06.98-12.14,1.22-18.23.03-.74.15-1.49.22-2.23.24-2.36,1.22-4.23,3.87-4.11,2.58.11,3.59,2.07,3.76,4.36.27,3.6.44,7.21.48,10.81.28,25.89-5.74,50.32-16.68,73.7-2.11,4.5-5,8.55-6.91,13.13-8.08,12.77-17.88,24-29.81,33.31-2.44,1.9-4.97,3.72-7.62,5.31-4.61,2.77-8.16,1.35-10.29-3.91.33-1.99.69-3.98,2.39-5.36Z"/>
        <path class="cls-5" d="m461.88,130.07c2.65,2.96,6.57,4.02,9.57,6.45,4.14,3.86,7.12,9.06,13.11,10.78,2.19.63,1.74,3.01,1.88,4.75.08,1.03-.6,1.85-1.92,1.73-1.97-.19-2.87-1.18-2.57-3.19.02-.13-.33-.31-.51-.46-3.68,4.06-3.33,6.49,2.7,9.7,2.67,1.42,2.76,2.68,2.19,4.9-9-7.2-17.96-14.45-27.68-20.71-3.69-2.37-4.11-5.4-2.17-10.59.6-1.62,1.41-3.16,2.12-4.74,1.09.47,2.18.93,3.27,1.4Z"/>
        <path class="cls-15" d="m571.1,358.98c-.3,2.41-1.71,4.66.61,6.84.59.55.2,1.75-.79,2.1-.92.32-1.21-.43-1.52-1.16-1.29-3.01-.64-5.59,1.69-7.78Z"/>
        <path class="cls-10" d="m510.38,384.24c1.29-2.13,2.96-3.93,4.73-5.65-.66,2.65-2.05,4.69-4.73,5.65Z"/>
        <path class="cls-10" d="m517.6,397.5c-.87,1.38-1.73,2.77-3.39,3.34-.84-3.1,1.68-2.81,3.39-3.34Z"/>
        <path class="cls-10" d="m513.41,402.26c-.8,1.79-1.59,3.57-2.39,5.36-.47-2.35.1-4.24,2.39-5.36Z"/>
        <path class="cls-1" d="m530.73,319.29c-5.2,12.14-11.49,23.64-19.69,34.04-.55-1.52-.57-3.28.59-4.23,4.89-4.02,5.62-10.74,10.14-15.05,2.44-2.33,2.51-6.08,3.58-9.2.43-1.27.11-3.06-2.12-1.85-1.06.58-2.09.9-3.14.18-.42-.29-.51-.92-.11-1.32.98-.99,2.41-2.22,3.55-1.45,2.94,1.98,4.91-.26,7.21-1.13Z"/>
        <path class="cls-1" d="m515.97,310c3.05-.37,5.65,3.56,4.17,6.7-1.39,2.97-4.37,5.05-4.92,8.59-.1.66-1.04,1.13-1.84.85-1.1-.39-.94-1.35-.71-2.2.75-2.75,1.46-5.53,3.01-7.98,1.23-1.94,1.53-3.9.28-5.94,0,0,0-.02,0-.02Z"/>
        <path class="cls-1" d="m505.33,349.2c-.68.54-1.27.59-1.84.19-.74-.52-.81-1.25-.38-1.96.89-1.48,1.92-2.85,2.07-4.71.07-.85,1.07-.89,1.85-.73,1.01.21,1.58.87,1.33,1.88-.52,2.1-1.73,3.84-3.03,5.33Z"/>
        <path class="cls-1" d="m507.51,337.38c-.91.33-1.78.41-2.08-.77-.41-1.59.5-2.63,1.71-3.42.65-.43,1.18-.1,1.4.63.43,1.4.56,2.73-1.03,3.55Z"/>
        <path class="cls-1" d="m501.69,342.58c-.82,2.61-2.21,3.58-4.72,4.41.73-2.55,2.12-3.55,4.72-4.41Z"/>
      </g>
    </g>
  </g>
</svg>